<svg xmlns="http://www.w3.org/2000/svg" width="960" height="560" viewBox="0 0 960 560" role="img" aria-labelledby="title">
  <title id="title">Fish Port Marketplace preview</title>
  <rect width="960" height="560" rx="36" fill="#f8fafc"/>
  <rect x="52" y="48" width="856" height="464" rx="28" fill="#ffffff" stroke="#e2e8f0"/>
  <rect x="92" y="88" width="776" height="72" rx="18" fill="#0f172a"/>
  <rect x="92" y="196" width="232" height="250" rx="22" fill="#eff6ff"/>
  <rect x="364" y="196" width="232" height="250" rx="22" fill="#dbeafe"/>
  <rect x="636" y="196" width="232" height="250" rx="22" fill="#eff6ff"/>
  <path d="M148 306c42-48 90-48 132 0-42 48-90 48-132 0Z" fill="#2563eb"/>
  <path d="M420 306c42-48 90-48 132 0-42 48-90 48-132 0Z" fill="#1d4ed8"/>
  <path d="M692 306c42-48 90-48 132 0-42 48-90 48-132 0Z" fill="#2563eb"/>
  <circle cx="250" cy="306" r="7" fill="#eff6ff"/>
  <circle cx="522" cy="306" r="7" fill="#eff6ff"/>
  <circle cx="794" cy="306" r="7" fill="#eff6ff"/>
</svg>
