<svg xmlns="http://www.w3.org/2000/svg" width="960" height="560" viewBox="0 0 960 560" role="img" aria-labelledby="title">
  <title id="title">Water Monitoring System preview</title>
  <rect width="960" height="560" rx="36" fill="#f8fafc"/>
  <rect x="54" y="48" width="852" height="464" rx="28" fill="#ffffff" stroke="#e2e8f0"/>
  <rect x="92" y="88" width="360" height="166" rx="24" fill="#dbeafe"/>
  <rect x="484" y="88" width="384" height="166" rx="24" fill="#f1f5f9"/>
  <rect x="92" y="286" width="776" height="170" rx="24" fill="#0f172a"/>
  <path d="M136 382h76l52-56 72 88 58-58 64 26 48-78 74 110 68-62 74 30h90" fill="none" stroke="#60a5fa" stroke-width="16" stroke-linecap="round" stroke-linejoin="round"/>
  <circle cx="236" cy="168" r="54" fill="#2563eb"/>
  <path d="M236 126c38 46 57 80 33 109-17 20-49 20-66 0-24-29-5-63 33-109Z" fill="#bfdbfe"/>
</svg>
