<svg xmlns="http://www.w3.org/2000/svg" width="960" height="560" viewBox="0 0 960 560" role="img" aria-labelledby="title">
  <title id="title">AquaTrack dashboard preview</title>
  <rect width="960" height="560" rx="36" fill="#f8fafc"/>
  <rect x="48" y="44" width="864" height="472" rx="28" fill="#ffffff" stroke="#e2e8f0"/>
  <rect x="82" y="82" width="188" height="396" rx="20" fill="#0f172a"/>
  <rect x="306" y="82" width="238" height="162" rx="20" fill="#dbeafe"/>
  <rect x="572" y="82" width="270" height="162" rx="20" fill="#eff6ff"/>
  <rect x="306" y="272" width="536" height="206" rx="20" fill="#f1f5f9"/>
  <path d="M342 414c54-70 110-38 157-82 44-42 88-60 154 20 50 61 88 6 151 42" fill="none" stroke="#2563eb" stroke-width="18" stroke-linecap="round"/>
  <circle cx="385" cy="158" r="42" fill="#2563eb"/>
  <path d="M383 127c33 36 50 66 30 91-16 20-48 20-64 0-20-25-3-55 34-91Z" fill="#bfdbfe"/>
</svg>
