<svg xmlns="http://www.w3.org/2000/svg" width="960" height="560" viewBox="0 0 960 560" role="img" aria-labelledby="title">
  <title id="title">Cemetery Mapping System preview</title>
  <rect width="960" height="560" rx="36" fill="#f8fafc"/>
  <rect x="52" y="48" width="856" height="464" rx="28" fill="#ffffff" stroke="#e2e8f0"/>
  <rect x="92" y="88" width="520" height="384" rx="24" fill="#e2e8f0"/>
  <rect x="648" y="88" width="220" height="384" rx="24" fill="#f1f5f9"/>
  <path d="M132 160h438M132 240h438M132 320h438M132 400h438M210 128v310M310 128v310M410 128v310M510 128v310" stroke="#cbd5e1" stroke-width="10" stroke-linecap="round"/>
  <path d="M358 254c44 0 80 34 80 76 0 55-80 122-80 122s-80-67-80-122c0-42 36-76 80-76Z" fill="#2563eb"/>
  <circle cx="358" cy="330" r="28" fill="#bfdbfe"/>
  <rect x="686" y="126" width="144" height="22" rx="11" fill="#0f172a"/>
  <rect x="686" y="184" width="120" height="18" rx="9" fill="#94a3b8"/>
  <rect x="686" y="226" width="150" height="18" rx="9" fill="#94a3b8"/>
  <rect x="686" y="268" width="104" height="18" rx="9" fill="#94a3b8"/>
</svg>
